<svg width="55" height="11" viewBox="0 0 55 11" fill="none" xmlns="http://www.w3.org/2000/svg">
<path d="M5.5 0L6.73483 3.80041H10.7308L7.49799 6.14919L8.73282 9.94959L5.5 7.60081L2.26718 9.94959L3.50201 6.14919L0.269189 3.80041H4.26517L5.5 0Z" fill="#F2994A"/>
<path d="M16.5 0L17.7348 3.80041H21.7308L18.498 6.14919L19.7328 9.94959L16.5 7.60081L13.2672 9.94959L14.502 6.14919L11.2692 3.80041H15.2652L16.5 0Z" fill="#F2994A"/>
<path d="M27.5 0L28.7348 3.80041H32.7308L29.498 6.14919L30.7328 9.94959L27.5 7.60081L24.2672 9.94959L25.502 6.14919L22.2692 3.80041H26.2652L27.5 0Z" fill="#F2994A"/>
<path d="M38.5 0L39.7348 3.80041H43.7308L40.498 6.14919L41.7328 9.94959L38.5 7.60081L35.2672 9.94959L36.502 6.14919L33.2692 3.80041H37.2652L38.5 0Z" fill="#F2994A"/>
<path d="M49.5 0L50.7348 3.80041H54.7308L51.498 6.14919L52.7328 9.94959L49.5 7.60081L46.2672 9.94959L47.502 6.14919L44.2692 3.80041H48.2652L49.5 0Z" fill="#F2994A"/>
</svg>
